<?xml version="1.0" encoding="UTF-8"?>
<svg id="Logotipo_-_Versão_Nova" data-name="Logotipo - Versão Nova" xmlns="http://www.w3.org/2000/svg" viewBox="0 0 1038.3 224.3">
  <defs>
    <style>
      .cls-1 {
        fill: #10f35e;
      }

      .cls-2 {
        fill: #055866;
      }
    </style>
  </defs>
  <g id="logotipo-original">
    <g id="logo">
      <g id="Symbol">
        <path class="cls-2" d="M139.7,44.65c1.82,0,2.69,2.24,1.36,3.48-11.56,10.75-27.06,17.33-44.09,17.33s-32.52-6.57-44.08-17.33c-1.34-1.24-.47-3.48,1.36-3.48h85.46Z"/>
        <path class="cls-1" d="M207.18,46.65v113.3c0,1.25-1.14,2.22-2.37,1.97-37.26-7.56-65.29-40.51-65.29-80,0-12.99,3.03-25.27,8.42-36.16.34-.68,1.04-1.11,1.8-1.11h55.44c1.1,0,2,.9,2,2Z"/>
        <path class="cls-2" d="M195.2,179.65H65.91c-1.54,0-2.51-1.67-1.74-3.01,13.24-22.91,38.01-38.33,66.38-38.33s53.15,15.42,66.39,38.33c.77,1.33-.2,3.01-1.74,3.01Z"/>
        <path class="cls-2" d="M87.36,116.4c0,26.56-13.97,49.86-34.96,62.95-.32.2-.69.3-1.07.3h-4.9c-1.1,0-2-.9-2-2V52.37c0-1.5,1.6-2.47,2.93-1.78,23.76,12.34,40,37.18,40,65.81Z"/>
      </g>
      <g id="Tipo">
        <path class="cls-2" d="M949.25,44.65v112.94c0,1.33.87,2.61,2.42,3.56l27.98,17.07c1.54.94,3.64,1.47,5.83,1.47h.05c4.55,0,8.25-2.25,8.25-5.02V44.65h-44.52Z"/>
        <path class="cls-2" d="M281.02,179.65l52.24-112.76,43.85,99.58c3.53,8.01,11.45,13.17,20.2,13.17h36.29l-64.14-135h-45l-63.1,135h19.65Z"/>
        <path class="cls-2" d="M648.06,58.18v98.64c0,12.11,9.84,22.83,21.95,22.83h22.6l-.03-121.47h59.25v-13.53h-162.34l11.13,13.53h47.44Z"/>
        <path class="cls-2" d="M904.68,137.09c.28-.14.57-.3.86-.45,10.36-5.67,16.62-16.73,16.62-28.55v-27.95c0-9.81-4.01-19.29-11.39-25.74-.37-.32-.75-.63-1.14-.95-7.2-5.84-16.32-8.8-25.59-8.8h-105.11v124.05c0,6.13,4.97,11.11,11.11,11.11h33.43v-39.84h32.81l43.48,39.84h22.4l-43.75-39.84h13.79c6.22,0,8.62-.92,12.48-2.88ZM823.27,126.68V59.77h61.23c9.5,0,18.14,5.66,21.76,14.44.01.04.03.08.04.11.21.52.31,1.04.31,1.6v32.03c0,1.95-.21,3.93-.82,5.79-1.31,4.07-3.75,6.9-6.29,8.86-3.6,2.75-8.07,4.08-12.6,4.08h-63.63Z"/>
        <path class="cls-2" d="M549.89,44.65l12.51,15.42h-47.54c-2.98,0-5.94.76-8.43,2.39s-4.82,4.16-5.3,8.23c-.93,7.87,8.66,16.26,10.85,18.06.47.39.94.79,1.4,1.19l28.48,24.78s18.45,18.1,18.97,29.24c0,.15.01.3.02.46.82,18.48-13.4,34.51-31.89,35.2-.45.02-.91.03-1.38.03h-61.44c-3.08,0-5.57-2.49-5.57-5.57v-7.83h49.61s9.71.33,11.94-8.78c1.16-4.72-.48-9.69-4-13.04l-48.63-46.4c-5.58-5.32-9.05-12.58-9.26-20.28-.14-5.2,1.11-11.14,5.39-16.98,11.84-16.19,27.33-16.01,27.33-16.01l56.94-.11Z"/>
      </g>
    </g>
  </g>
</svg>
