<?xml version="1.0" encoding="UTF-8"?>
<svg id="Layer_2" data-name="Layer 2" xmlns="http://www.w3.org/2000/svg" viewBox="0 0 162.75 135">
  <defs>
    <style>
      .cls-1 {
        fill: #10f35e;
      }

      .cls-2 {
        fill: #055866;
      }
    </style>
  </defs>
  <g id="Logotipo_-_Versão_Nova" data-name="Logotipo - Versão Nova">
    <g id="logo-original">
      <g id="logo">
        <g id="Symbol">
          <path class="cls-2" d="M95.27,0c1.82,0,2.69,2.24,1.36,3.48-11.56,10.75-27.06,17.33-44.09,17.33S20.01,14.24,8.45,3.48c-1.34-1.24-.47-3.48,1.36-3.48h85.46Z"/>
          <path class="cls-1" d="M162.75,2v113.3c0,1.25-1.14,2.22-2.37,1.97-37.26-7.56-65.29-40.51-65.29-80,0-12.99,3.03-25.27,8.42-36.16.34-.68,1.04-1.11,1.8-1.11h55.44c1.1,0,2,.9,2,2Z"/>
          <path class="cls-2" d="M150.77,135H21.48c-1.54,0-2.51-1.67-1.74-3.01,13.24-22.91,38.01-38.33,66.38-38.33s53.15,15.42,66.39,38.33c.77,1.33-.2,3.01-1.74,3.01Z"/>
          <path class="cls-2" d="M42.93,71.75c0,26.56-13.97,49.86-34.96,62.95-.32.2-.69.3-1.07.3H2c-1.1,0-2-.9-2-2V7.72c0-1.5,1.6-2.47,2.93-1.78,23.76,12.34,40,37.18,40,65.81Z"/>
        </g>
      </g>
    </g>
  </g>
</svg>
